<svg xmlns="http://www.w3.org/2000/svg" viewBox="0 0 200 200">
  <!-- Background -->
  <rect width="200" height="200" rx="40" ry="40" fill="#4A4A4A"/>
  
  <!-- Gamepad Simplified Icon -->
  <g transform="translate(50, 60) scale(0.7)">
    <!-- Base Controller Shape -->
    <path d="M0 40 C0 20, 20 0, 40 0 L120 0 C140 0, 160 20, 160 40 L160 100 C160 120, 140 140, 120 140 L40 140 C20 140, 0 120, 0 100 Z" 
          fill="#2196F3" stroke="#2196F3" stroke-width="5"/>
    
    <!-- Buttons -->
    <circle cx="100" cy="70" r="15" fill="#FF5722"/>
    <circle cx="130" cy="100" r="15" fill="#FF5722"/>
    
    <!-- Directional Pad -->
    <g fill="#FFFFFF">
      <rect x="20" y="70" width="40" height="10" rx="5" ry="5"/>
      <rect x="35" y="55" width="10" height="40" rx="5" ry="5"/>
    </g>
  </g>
  
  <!-- Small Star Elements -->
  <g fill="#FFC107">
    <path d="M30 30 L35 40 L45 42 L38 49 L40 60 L30 54 L20 60 L22 49 L15 42 L25 40 Z" transform="scale(0.7)"/>
    <path d="M170 160 L175 170 L185 172 L178 179 L180 190 L170 184 L160 190 L162 179 L155 172 L165 170 Z" transform="scale(0.7)"/>
  </g>
</svg>
